# xmcd CD database file
#
# Track frame offsets:
#	150
#	22935
#	37903
#	53057
#	76919
#	98784
#	122698
#	141681
#	162167
#	189841
#	211609
#
# Disc length: 3954 seconds
#
# Revision: 0
# Processed by: cddbd v1.5.1PL0 Copyright (c) Steve Scherf et al.
# Submitted via: CDex 1.51
#
DISCID=820f700b
DTITLE=Brigantini - ...Ti Peace?
DYEAR=2004
DGENRE=Rhythmic Soul
TTITLE0=Nonno "HARD" Rock (Nonno Rock)
TTITLE1=Yolemmoroydi (A nonna patturiu)
TTITLE2=La Chupadora (A sucalora)
TTITLE3=La palla di pelle di rana
TTITLE4=Osvaldo
TTITLE5=Narciso e i Balocchi
TTITLE6=Ti stuppai na fanta (The final countdown)
TTITLE7=Fet Jam H Ragna (Semu Fagghi)
TTITLE8=Aghighì Tiototò (Inno del P.R.S.)
TTITLE9=Accura (A Minchia o suli)
TTITLE10=On the...SEA (A mari)
EXTD=YEAR: 2004
EXTT0=
EXTT1=
EXTT2=
EXTT3=
EXTT4=
EXTT5=
EXTT6=
EXTT7=
EXTT8=
EXTT9=
EXTT10=
PLAYORDER=
